<svg width="1920" height="1080" xmlns="http://www.w3.org/2000/svg" xmlns:xlink="http://www.w3.org/1999/xlink" overflow="hidden"><defs><filter id="fx0" x="-10%" y="-10%" width="120%" height="120%" filterUnits="userSpaceOnUse" primitiveUnits="userSpaceOnUse"><feComponentTransfer color-interpolation-filters="sRGB"><feFuncR type="discrete" tableValues="0 0"/><feFuncG type="discrete" tableValues="0 0"/><feFuncB type="discrete" tableValues="0 0"/><feFuncA type="linear" slope="0.101961" intercept="0"/></feComponentTransfer><feGaussianBlur stdDeviation="1.77778 1.77778"/></filter><filter id="fx1" x="-10%" y="-10%" width="120%" height="120%" filterUnits="userSpaceOnUse" primitiveUnits="userSpaceOnUse"><feComponentTransfer color-interpolation-filters="sRGB"><feFuncR type="discrete" tableValues="0 0"/><feFuncG type="discrete" tableValues="0 0"/><feFuncB type="discrete" tableValues="0 0"/><feFuncA type="linear" slope="0.101961" intercept="0"/></feComponentTransfer><feGaussianBlur stdDeviation="1.77778 1.77778"/></filter><filter id="fx2" x="-10%" y="-10%" width="120%" height="120%" filterUnits="userSpaceOnUse" primitiveUnits="userSpaceOnUse"><feComponentTransfer color-interpolation-filters="sRGB"><feFuncR type="discrete" tableValues="0 0"/><feFuncG type="discrete" tableValues="0 0"/><feFuncB type="discrete" tableValues="0 0"/><feFuncA type="linear" slope="0.101961" intercept="0"/></feComponentTransfer><feGaussianBlur stdDeviation="1.77778 1.77778"/></filter><filter id="fx3" x="-10%" y="-10%" width="120%" height="120%" filterUnits="userSpaceOnUse" primitiveUnits="userSpaceOnUse"><feComponentTransfer color-interpolation-filters="sRGB"><feFuncR type="discrete" tableValues="0 0"/><feFuncG type="discrete" tableValues="0 0"/><feFuncB type="discrete" tableValues="0 0"/><feFuncA type="linear" slope="0.101961" intercept="0"/></feComponentTransfer><feGaussianBlur stdDeviation="1.77778 1.77778"/></filter><filter id="fx4" x="-10%" y="-10%" width="120%" height="120%" filterUnits="userSpaceOnUse" primitiveUnits="userSpaceOnUse"><feComponentTransfer color-interpolation-filters="sRGB"><feFuncR type="discrete" tableValues="0 0"/><feFuncG type="discrete" tableValues="0 0"/><feFuncB type="discrete" tableValues="0 0"/><feFuncA type="linear" slope="0.101961" intercept="0"/></feComponentTransfer><feGaussianBlur stdDeviation="1.77778 1.77778"/></filter><linearGradient x1="498.516" y1="-280.415" x2="1421.48" y2="1360.42" gradientUnits="userSpaceOnUse" spreadMethod="reflect" id="fill5"><stop offset="0" stop-color="#FFFBEF"/><stop offset="0.31" stop-color="#F2F2F2"/><stop offset="0.53" stop-color="#F2F2F2"/><stop offset="0.77" stop-color="#F2F2F2"/><stop offset="1" stop-color="#ECF3FA"/></linearGradient></defs><g><rect x="0" y="0" width="1920" height="1080" fill="url(#fill5)"/><g filter="url(#fx0)" transform="translate(30 45)"><g><path d="M7.32848 22.3285C7.32848 14.0442 14.0442 7.32848 22.3284 7.32848L1844.33 7.32848C1852.61 7.32848 1859.33 14.0442 1859.33 22.3285L1859.33 82.3285C1859.33 90.6127 1852.61 97.3285 1844.33 97.3285L22.3284 97.3285C14.0442 97.3285 7.32848 90.6127 7.32848 82.3285Z" stroke="#FFFFFF" stroke-miterlimit="8" fill="#FFFFFF" fill-rule="evenodd"/></g></g><path d="M34.5001 64.5001C34.5001 56.2158 41.2157 49.5001 49.5 49.5001L1871.5 49.5001C1879.78 49.5001 1886.5 56.2158 1886.5 64.5001L1886.5 124.5C1886.5 132.784 1879.78 139.5 1871.5 139.5L49.5 139.5C41.2157 139.5 34.5001 132.784 34.5001 124.5Z" stroke="#FFFFFF" stroke-width="1.33333" stroke-miterlimit="8" fill="#FFFFFF" fill-rule="evenodd"/><g filter="url(#fx1)" transform="translate(31 162)"><g><path d="M7.32848 32.2803C7.32848 18.4998 18.4998 7.32848 32.2802 7.32848L899.377 7.32848C913.157 7.32848 924.328 18.4998 924.328 32.2803L924.328 398.377C924.328 412.157 913.157 423.328 899.377 423.328L32.2802 423.328C18.4998 423.328 7.32848 412.157 7.32848 398.377Z" stroke="#FFFFFF" stroke-miterlimit="8" fill="#FFFFFF" fill-rule="evenodd"/></g></g><path d="M35.5001 191.452C35.5001 177.671 46.6713 166.5 60.4518 166.5L927.548 166.5C941.329 166.5 952.5 177.671 952.5 191.452L952.5 557.548C952.5 571.329 941.329 582.5 927.548 582.5L60.4518 582.5C46.6713 582.5 35.5001 571.329 35.5001 557.548Z" stroke="#FFFFFF" stroke-width="1.33333" stroke-miterlimit="8" fill="#FFFFFF" fill-rule="evenodd"/><g filter="url(#fx2)" transform="translate(966 162)"><g><path d="M7.32849 32.2801C7.32849 18.4997 18.4997 7.32848 32.2801 7.32848L898.377 7.32848C912.157 7.32848 923.328 18.4997 923.328 32.2801L923.328 398.377C923.328 412.157 912.157 423.328 898.377 423.328L32.2801 423.328C18.4997 423.328 7.32849 412.157 7.32849 398.377Z" stroke="#FFFFFF" stroke-miterlimit="8" fill="#FFFFFF" fill-rule="evenodd"/></g></g><path d="M970.5 191.452C970.5 177.671 981.671 166.5 995.452 166.5L1861.55 166.5C1875.33 166.5 1886.5 177.671 1886.5 191.452L1886.5 557.548C1886.5 571.329 1875.33 582.5 1861.55 582.5L995.452 582.5C981.671 582.5 970.5 571.329 970.5 557.548Z" stroke="#FFFFFF" stroke-width="1.33333" stroke-miterlimit="8" fill="#FFFFFF" fill-rule="evenodd"/><g filter="url(#fx3)" transform="translate(31 596)"><g><path d="M7.32848 32.2803C7.32848 18.4998 18.4998 7.32849 32.2802 7.32849L899.377 7.32849C913.157 7.32849 924.328 18.4998 924.328 32.2803L924.328 398.377C924.328 412.157 913.157 423.328 899.377 423.328L32.2802 423.328C18.4998 423.328 7.32848 412.157 7.32848 398.377Z" stroke="#FFFFFF" stroke-miterlimit="8" fill="#FFFFFF" fill-rule="evenodd"/></g></g><path d="M35.5001 625.452C35.5001 611.671 46.6713 600.5 60.4518 600.5L927.548 600.5C941.329 600.5 952.5 611.671 952.5 625.452L952.5 991.548C952.5 1005.33 941.329 1016.5 927.548 1016.5L60.4518 1016.5C46.6713 1016.5 35.5001 1005.33 35.5001 991.548Z" stroke="#FFFFFF" stroke-width="1.33333" stroke-miterlimit="8" fill="#FFFFFF" fill-rule="evenodd"/><g filter="url(#fx4)" transform="translate(964 596)"><g><path d="M7.32849 32.2803C7.32849 18.4998 18.4998 7.32849 32.2802 7.32849L899.377 7.32849C913.157 7.32849 924.328 18.4998 924.328 32.2803L924.328 398.377C924.328 412.157 913.157 423.328 899.377 423.328L32.2802 423.328C18.4998 423.328 7.32849 412.157 7.32849 398.377Z" stroke="#FFFFFF" stroke-miterlimit="8" fill="#FFFFFF" fill-rule="evenodd"/></g></g><path d="M968.5 625.452C968.5 611.671 979.671 600.5 993.452 600.5L1860.55 600.5C1874.33 600.5 1885.5 611.671 1885.5 625.452L1885.5 991.548C1885.5 1005.33 1874.33 1016.5 1860.55 1016.5L993.452 1016.5C979.671 1016.5 968.5 1005.33 968.5 991.548Z" stroke="#FFFFFF" stroke-width="1.33333" stroke-miterlimit="8" fill="#FFFFFF" fill-rule="evenodd"/></g></svg>