<svg width="1920" height="1080" xmlns="http://www.w3.org/2000/svg" xmlns:xlink="http://www.w3.org/1999/xlink" overflow="hidden"><defs><filter id="fx0" x="-10%" y="-10%" width="120%" height="120%" filterUnits="userSpaceOnUse" primitiveUnits="userSpaceOnUse"><feComponentTransfer color-interpolation-filters="sRGB"><feFuncR type="discrete" tableValues="0 0"/><feFuncG type="discrete" tableValues="0 0"/><feFuncB type="discrete" tableValues="0 0"/><feFuncA type="linear" slope="0.101961" intercept="0"/></feComponentTransfer><feGaussianBlur stdDeviation="1.77778 1.77778"/></filter><filter id="fx1" x="-10%" y="-10%" width="120%" height="120%" filterUnits="userSpaceOnUse" primitiveUnits="userSpaceOnUse"><feComponentTransfer color-interpolation-filters="sRGB"><feFuncR type="discrete" tableValues="0 0"/><feFuncG type="discrete" tableValues="0 0"/><feFuncB type="discrete" tableValues="0 0"/><feFuncA type="linear" slope="0.101961" intercept="0"/></feComponentTransfer><feGaussianBlur stdDeviation="1.77778 1.77778"/></filter><linearGradient x1="498.516" y1="-280.415" x2="1421.48" y2="1360.42" gradientUnits="userSpaceOnUse" spreadMethod="reflect" id="fill2"><stop offset="0" stop-color="#FFFBEF"/><stop offset="0.31" stop-color="#F2F2F2"/><stop offset="0.53" stop-color="#F2F2F2"/><stop offset="0.77" stop-color="#F2F2F2"/><stop offset="1" stop-color="#ECF3FA"/></linearGradient></defs><g><rect x="0" y="0" width="1920" height="1080" fill="url(#fill2)"/><g filter="url(#fx0)" transform="translate(30 45)"><g><path d="M7.32848 22.3285C7.32848 14.0442 14.0442 7.32848 22.3284 7.32848L1844.33 7.32848C1852.61 7.32848 1859.33 14.0442 1859.33 22.3285L1859.33 82.3285C1859.33 90.6127 1852.61 97.3285 1844.33 97.3285L22.3284 97.3285C14.0442 97.3285 7.32848 90.6127 7.32848 82.3285Z" stroke="#FFFFFF" stroke-miterlimit="8" fill="#FFFFFF" fill-rule="evenodd"/></g></g><path d="M34.5001 64.5001C34.5001 56.2158 41.2157 49.5001 49.5 49.5001L1871.5 49.5001C1879.78 49.5001 1886.5 56.2158 1886.5 64.5001L1886.5 124.5C1886.5 132.784 1879.78 139.5 1871.5 139.5L49.5 139.5C41.2157 139.5 34.5001 132.784 34.5001 124.5Z" stroke="#FFFFFF" stroke-width="1.33333" stroke-miterlimit="8" fill="#FFFFFF" fill-rule="evenodd"/><g filter="url(#fx1)" transform="translate(31 162)"><g><path d="M7.32848 58.312C7.32848 30.1546 30.1546 7.32848 58.3119 7.32848L1807.34 7.32848C1835.5 7.32848 1858.33 30.1546 1858.33 58.312L1858.33 806.345C1858.33 834.502 1835.5 857.328 1807.34 857.328L58.3119 857.328C30.1546 857.328 7.32848 834.502 7.32848 806.345Z" stroke="#FFFFFF" stroke-miterlimit="8" fill="#FFFFFF" fill-rule="evenodd"/></g></g><path d="M35.5001 217.484C35.5001 189.326 58.3261 166.5 86.4835 166.5L1835.52 166.5C1863.67 166.5 1886.5 189.326 1886.5 217.484L1886.5 965.516C1886.5 993.674 1863.67 1016.5 1835.52 1016.5L86.4835 1016.5C58.3261 1016.5 35.5001 993.674 35.5001 965.516Z" stroke="#FFFFFF" stroke-width="1.33333" stroke-miterlimit="8" fill="#FFFFFF" fill-rule="evenodd"/></g></svg>